<?xml version="1.0" encoding="UTF-8"?>
<svg width="624px" height="704px" viewBox="0 0 624 704" version="1.1" xmlns="http://www.w3.org/2000/svg" xmlns:xlink="http://www.w3.org/1999/xlink">
    <!-- Generator: Sketch 50.2 (55047) - http://www.bohemiancoding.com/sketch -->
    <title>Artboard</title>
    <desc>Created with Sketch.</desc>
    <defs></defs>
    <g id="Artboard" stroke="none" stroke-width="1" fill="none" fill-rule="evenodd">
        <g id="Group" transform="translate(6.000000, 9.000000)">
            <circle id="Oval-Copy" stroke="#2A2A2A" stroke-width="4" transform="translate(180.000000, 398.000000) rotate(-360.000000) translate(-180.000000, -398.000000) " cx="180" cy="398" r="180"></circle>
            <circle id="Oval-Copy-4" stroke="#2A2A2A" stroke-width="4" transform="translate(306.000000, 180.000000) rotate(-360.000000) translate(-306.000000, -180.000000) " cx="306" cy="180" r="180"></circle>
            <circle id="Oval-Copy-3" stroke="#2A2A2A" stroke-width="4" transform="translate(432.000000, 398.000000) rotate(-360.000000) translate(-432.000000, -398.000000) " cx="432" cy="398" r="180"></circle>
            <text id="Desirability" transform="translate(132.000000, 422.500000) rotate(-360.000000) translate(-132.000000, -422.500000) " font-family="Montserrat-Bold, Montserrat" font-size="24" font-weight="bold" fill="#333333">
                <tspan x="60.444" y="431">Desirability</tspan>
            </text>
            <text id="Viability" transform="translate(459.500000, 422.500000) rotate(-360.000000) translate(-459.500000, -422.500000) " font-family="Montserrat-Bold, Montserrat" font-size="24" font-weight="bold" fill="#333333">
                <tspan x="408.02" y="431">Viability</tspan>
            </text>
            <text id="Feasability" transform="translate(306.000000, 155.500000) rotate(-360.000000) translate(-306.000000, -155.500000) " font-family="Montserrat-Bold, Montserrat" font-size="24" font-weight="bold" fill="#333333">
                <tspan x="238.068" y="164">Feasability</tspan>
            </text>
            <text id="Innovation" transform="translate(306.000000, 672.500000) rotate(-360.000000) translate(-306.000000, -672.500000) " font-family="Montserrat-Bold, Montserrat" font-size="24" font-weight="bold" fill="#333333">
                <tspan x="238" y="681">Innovation</tspan>
            </text>
            <path d="M306.499998,269 C329.669854,291.796664 346.733322,320.821999 355,353.375791 C339.568636,357.69242 323.302821,360 306.5,360 C289.697179,360 273.431364,357.69242 258,353.375791 C266.266678,320.822 283.330145,291.796665 306.5,269.000002 Z" id="Combined-Shape" stroke="#2A2A2A" stroke-width="4" fill="#00C137"></path>
            <path d="M306.5,318 L306.5,638" id="Line" stroke="#2A2A2A" stroke-width="4" stroke-linecap="square" stroke-dasharray="16"></path>
        </g>
    </g>
</svg>